# xmcd
#
# Track frame offsets: 
#        150
#        75716
#        104199
#        138794
#        156416
#        194832
#        208485
#        222501
#        232479
#        260817
#        272890
#        291995
#        310863
#
# Disc length: 4363 seconds
#
# Revision: 0
# Processed by: cddbd v1.5.1PL2 Copyright (c) Steve Scherf et al.
# Submitted via: ExactAudioCopy v0.95b3
#
DISCID=e711090d
DTITLE=Nathan Milstein - Beethoven, Tchaikovsky, etc.
DYEAR=1900
DGENRE=Classical
TTITLE0=Stock - CSO - Tchaikovsky - Violin concerto in D, op. 35 - All
TTITLE0=egro moderato
TTITLE1=Stock - CSO - Tchaikovsky - Violin concerto in D, op. 35 - Can
TTITLE1=zonetta: Andante
TTITLE2=Stock - CSO - Tchaikovsky - Violin concerto in D, op. 35 - Fin
TTITLE2=ale
TTITLE3=Balsam - Beethoven - Sonata No. 8 in G, op. 30 No. 3 for piano
TTITLE3=and violin - Allegro assai
TTITLE4=Balsam - Beethoven - Sonata No. 8 in G, op. 30 No. 3 for piano
TTITLE4=and violin - Tempo di menuetto, ma molto moderato e grazioso
TTITLE5=Balsam - Beethoven - Sonata No. 8 in G, op. 30 No. 3 for piano
TTITLE5=and violin - Allegro vivace
TTITLE6=Balsam - Gluck (arr. Kreisler) - Melodie from "Orfeo"
TTITLE7=Mittman - Kreisler - Rondino on a theme of Beethoven
TTITLE8=Balsam - Bloch - Nigun (Improvisation) No. 2 "Baal Shem"
TTITLE9=Balsam - Suk - Burleska, Op. 17
TTITLE10=Balsam - Massenet - Meditation (Thaïs)
TTITLE11=Balsam - Sarasate - Romanza Andaluza (Danses Espagnoles)
TTITLE12=Balsam - Wieniawski - Scherzo Tarantelle, op. 16
EXTD=
EXTT0=
EXTT1=
EXTT2=
EXTT3=
EXTT4=
EXTT5=
EXTT6=
EXTT7=
EXTT8=
EXTT9=
EXTT10=
EXTT11=
EXTT12=
PLAYORDER=
